<?xml version="1.0" standalone="no"?>
<!DOCTYPE svg PUBLIC "-//W3C//DTD SVG 20010904//EN"
 "http://www.w3.org/TR/2001/REC-SVG-20010904/DTD/svg10.dtd">
<svg version="1.0" xmlns="http://www.w3.org/2000/svg"
 width="460.000000pt" height="460.000000pt" viewBox="0 0 460.000000 460.000000"
 preserveAspectRatio="xMidYMid meet">
<metadata>
Created by potrace 1.14, written by Peter Selinger 2001-2017
</metadata>
<g transform="translate(0.000000,460.000000) scale(0.100000,-0.100000)"
fill="#000000" stroke="none">
<path d="M2380 4408 c-30 -4 -93 -11 -140 -17 -101 -11 -151 -28 -188 -61 -15
-14 -61 -42 -102 -63 -90 -46 -120 -67 -103 -74 8 -3 -2 -20 -26 -46 -63 -67
-83 -96 -75 -108 4 -7 3 -9 -3 -6 -28 17 -85 -152 -98 -288 -8 -81 19 -254 60
-390 13 -44 26 -102 30 -130 3 -27 11 -75 16 -106 8 -41 8 -62 0 -78 -10 -17
-9 -21 4 -21 8 0 15 -4 15 -9 0 -10 -48 -2 -55 10 -11 17 -35 -4 -35 -30 0
-48 22 -145 36 -161 12 -12 14 -10 14 13 0 16 4 26 9 23 5 -4 12 13 16 36 l8
43 15 -33 c15 -31 15 -33 -6 -48 -16 -11 -22 -25 -22 -52 0 -49 19 -114 31
-107 5 4 9 -15 9 -44 0 -27 5 -62 11 -78 7 -19 7 -29 0 -31 -7 -2 -3 -14 8
-28 10 -13 24 -48 31 -77 16 -68 81 -190 133 -248 64 -72 68 -78 72 -107 2
-15 4 -29 5 -32 4 -10 7 -25 8 -43 1 -10 6 -16 11 -13 4 3 6 -7 4 -22 -3 -19
-2 -23 5 -13 8 11 15 9 36 -11 28 -26 57 -120 51 -168 -1 -14 -3 -41 -4 -60
-1 -27 -4 -31 -11 -20 -15 23 -12 1 4 -28 16 -29 27 -59 32 -80 6 -32 15 -42
34 -42 11 0 20 -7 20 -15 0 -9 6 -18 14 -21 8 -3 16 -14 19 -25 3 -10 16 -23
29 -28 l23 -10 -25 -1 c-23 -2 -22 -3 8 -11 37 -11 44 -22 7 -13 -16 4 -25 2
-25 -6 0 -8 -25 -11 -89 -8 -102 3 -121 -6 -121 -58 0 -40 -21 -54 -82 -54
-63 -1 -117 -15 -143 -40 -16 -15 -43 -24 -89 -30 -67 -8 -108 -28 -193 -93
-23 -18 -66 -49 -96 -70 -72 -50 -128 -107 -152 -154 -11 -21 -37 -62 -57 -92
-21 -30 -38 -59 -38 -66 0 -6 -14 -30 -31 -53 -17 -24 -40 -66 -51 -94 -10
-28 -27 -62 -37 -75 -17 -20 -54 -109 -151 -363 -29 -76 -50 -145 -50 -167 0
-10 348 -13 1705 -13 l1704 0 7 37 c10 54 58 153 94 193 65 72 73 104 74 310
0 151 -4 207 -22 305 -31 166 -66 284 -118 393 -69 149 -158 221 -359 292 -80
29 -105 33 -225 37 -153 4 -207 15 -268 54 -23 15 -57 30 -75 33 -18 4 -52 24
-75 45 -24 21 -58 47 -76 56 -31 17 -36 17 -137 -9 -80 -20 -151 -49 -304
-125 -256 -126 -253 -125 -274 -109 -14 11 -14 11 -4 -3 11 -13 5 -18 -41 -32
-60 -19 -90 -23 -67 -8 11 7 5 11 -23 16 -21 5 -40 14 -43 24 -2 9 -8 24 -13
33 -8 13 -1 21 36 38 35 18 43 26 39 41 -5 15 -1 19 16 19 18 0 19 2 9 15 -11
13 -4 19 41 39 30 14 47 25 39 26 -10 1 -9 4 5 10 68 28 81 33 92 36 27 5 150
109 316 267 66 63 87 90 87 110 0 14 5 29 11 33 6 3 9 17 6 30 -2 13 -1 24 3
24 4 0 11 12 15 28 3 15 13 41 22 59 8 17 31 82 52 143 32 97 39 110 50 96 7
-9 20 -16 28 -16 12 0 11 7 -6 35 -11 19 -16 37 -10 40 5 4 9 26 9 50 0 34 5
47 19 55 39 20 46 89 15 136 -28 40 -29 50 -9 84 l13 25 10 -25 c5 -14 13 -41
18 -60 4 -19 9 -38 10 -42 1 -5 2 -11 3 -15 0 -4 8 3 17 15 21 30 37 144 25
176 -12 31 -55 31 -72 -1 -7 -13 -16 -23 -20 -23 -11 0 0 30 17 50 7 9 13 24
14 35 0 11 5 130 11 264 10 214 9 253 -5 325 -20 100 -20 163 -1 241 17 72 19
141 4 199 -13 51 -96 159 -141 182 -17 9 -107 42 -202 74 l-171 59 -175 -2
c-96 -1 -200 -5 -230 -9z m636 -688 c8 0 14 -6 14 -14 0 -7 7 -19 15 -26 8 -7
15 -29 15 -49 0 -20 4 -41 8 -46 5 -6 15 -26 22 -45 8 -19 30 -60 49 -90 81
-126 86 -150 83 -420 -1 -127 1 -210 6 -202 7 11 10 10 16 -3 8 -22 -4 -41
-15 -24 -7 11 -9 9 -10 -6 -2 -45 -11 -81 -25 -96 -8 -8 -14 -21 -14 -28 0 -7
-5 -9 -10 -6 -6 4 -25 -9 -44 -28 -29 -30 -34 -32 -44 -18 -10 15 -11 14 -11
-1 -1 -22 -31 -12 -31 11 -1 9 -9 -2 -20 -24 -11 -22 -20 -33 -20 -25 -1 13
-2 13 -13 -1 -7 -9 -18 -14 -24 -12 -11 4 -18 -22 -14 -49 0 -5 -4 -8 -10 -8
-6 0 -9 -7 -5 -15 3 -9 0 -15 -9 -15 -8 0 -15 -5 -15 -10 0 -6 -10 -14 -22
-19 -17 -6 -25 -4 -30 8 -11 26 -9 81 3 81 12 0 7 115 -7 159 -5 17 -4 22 5
17 6 -4 25 -4 42 -1 29 7 30 8 12 23 -23 21 -97 62 -112 62 -6 0 -11 -9 -11
-19 0 -28 -16 -35 -41 -17 -12 8 -26 13 -33 10 -6 -2 -22 5 -35 15 -23 17 -23
19 -7 42 9 13 16 36 16 51 0 28 -29 112 -36 105 -3 -2 3 -20 11 -40 16 -40 10
-71 -12 -63 -8 4 -25 9 -37 12 -11 3 -29 18 -38 34 -19 32 -34 37 -60 16 -22
-17 -104 -11 -124 8 -23 23 -74 21 -74 -3 0 -10 -11 -26 -25 -35 -25 -16 -25
-16 -25 11 0 20 12 38 40 62 25 22 40 43 40 58 0 13 5 23 12 23 6 0 9 3 6 6
-4 3 1 22 9 42 8 20 17 48 19 62 11 73 26 97 65 110 50 17 68 2 98 -81 12 -32
27 -59 32 -59 6 0 7 5 4 10 -11 19 10 10 31 -13 12 -12 32 -27 45 -33 72 -34
213 -45 260 -20 14 7 38 16 52 20 15 3 37 16 48 27 14 14 29 19 46 16 56 -10
70 64 29 155 -16 37 -42 69 -85 106 -33 29 -61 50 -61 45 0 -4 -4 -3 -8 4 -12
19 -109 24 -171 9 -31 -8 -72 -14 -91 -14 -19 -1 -36 -6 -38 -11 -2 -6 -9 -8
-15 -4 -18 11 -66 10 -64 -1 1 -6 -18 -12 -45 -14 -25 -2 -51 -9 -57 -16 -9
-11 -21 -11 -54 -3 -23 6 -45 15 -49 21 -5 7 -8 6 -8 -4 0 -10 -3 -11 -8 -4
-12 19 -37 21 -49 5 -11 -15 -12 -14 -13 1 0 13 -14 18 -65 23 -38 4 -65 12
-65 19 0 8 -2 8 -8 0 -4 -6 -40 -11 -87 -11 l-80 1 -46 -46 c-53 -52 -72 -84
-88 -151 -15 -63 -5 -123 25 -146 25 -19 97 -36 204 -46 67 -7 156 13 173 39
5 8 10 7 16 -3 8 -12 12 -12 26 2 23 23 26 21 15 -9 -6 -14 -8 -30 -5 -34 3
-5 2 -17 -3 -27 -19 -37 -44 -99 -48 -118 -10 -48 -12 -95 -3 -95 5 0 9 -5 9
-10 0 -6 -10 -8 -24 -4 -16 4 -25 1 -30 -11 -5 -15 -8 -15 -28 -1 -12 9 -29
16 -37 16 -19 0 -101 -42 -101 -52 0 -4 -11 -8 -24 -8 -13 0 -26 -6 -28 -12
-3 -9 -10 -8 -22 5 -10 9 -23 14 -29 10 -7 -4 -21 -7 -32 -8 -17 0 -20 -7 -20
-52 1 -44 -2 -53 -17 -53 -9 0 -24 -12 -32 -27 -15 -27 -15 -27 -16 -5 0 13
-5 32 -11 43 -10 19 -23 366 -19 524 2 88 15 150 40 186 11 15 20 33 20 41 0
7 14 28 30 46 17 18 30 37 30 43 0 5 8 9 19 9 10 0 24 7 31 15 7 8 21 15 32
15 10 0 21 7 24 15 4 9 13 13 23 10 11 -3 28 6 46 25 16 16 34 30 40 30 6 0
17 9 25 20 8 11 20 20 26 20 7 0 36 11 65 24 48 23 55 24 85 11 21 -8 55 -12
90 -9 34 2 77 -2 106 -11 60 -18 217 -22 246 -6 12 6 25 10 29 9 4 -1 34 8 66
20 32 12 71 22 87 22 16 0 32 5 36 12 6 9 9 9 12 0 2 -7 10 -12 18 -12z m-148
-435 c3 -3 -19 -5 -48 -5 -48 0 -52 1 -35 14 17 13 67 8 83 -9z m-725 -2 c-7
-2 -19 -2 -25 0 -7 3 -2 5 12 5 14 0 19 -2 13 -5z m632 -86 c9 -8 -6 -5 -57 9
l-22 7 24 19 24 20 10 -24 c6 -12 15 -27 21 -31z m-530 12 c-4 -5 -12 -9 -20
-9 -8 0 -17 -5 -20 -10 -4 -7 3 -9 22 -5 l28 5 -28 -11 c-36 -14 -42 -7 -26
30 11 24 16 28 31 20 10 -6 16 -14 13 -20z m635 -3 c0 -7 -9 -16 -20 -19 -25
-6 -26 1 -2 19 22 17 22 17 22 0z m-776 -11 c3 -9 0 -15 -9 -15 -8 0 -15 7
-15 15 0 8 4 15 9 15 5 0 11 -7 15 -15z m-97 -537 c-3 -8 -6 -5 -6 6 -1 11 2
17 5 13 3 -3 4 -12 1 -19z m58 12 c-3 -5 1 -37 8 -72 16 -70 18 -100 5 -92 -4
3 -8 -1 -8 -8 0 -7 -8 1 -19 17 -10 17 -31 39 -46 49 -21 14 -24 20 -14 26 7
5 17 6 21 4 4 -3 8 2 8 11 0 9 -4 13 -10 10 -5 -3 -10 1 -10 10 0 9 5 13 10
10 6 -3 10 3 10 14 0 12 8 21 23 24 12 2 23 5 25 6 2 0 1 -3 -3 -9z m485 -52
c0 -6 11 -8 23 -4 34 8 61 -15 55 -47 -3 -15 -1 -24 4 -21 4 3 15 -1 23 -10
11 -11 12 -16 2 -20 -6 -3 1 -3 17 1 26 5 27 4 17 -16 -7 -11 -19 -21 -29 -22
-9 0 -36 -2 -59 -5 -24 -3 -43 -2 -43 3 0 4 -39 8 -87 7 -72 -1 -89 2 -105 18
-12 12 -26 17 -36 13 -29 -11 -3 8 36 26 33 16 34 18 12 18 -23 0 -75 6 -92 9
-17 4 -7 40 13 45 18 5 20 2 15 -21 -5 -25 -4 -25 9 4 l13 30 106 1 c64 0 106
-3 106 -9z m119 -49 c-8 -5 -16 -3 -21 4 -14 22 -8 28 13 16 17 -9 19 -13 8
-20z m-382 -46 c-4 -3 1 -12 11 -19 16 -12 15 -13 -5 -14 -27 0 -41 19 -22 31
17 10 25 12 16 2z m73 -33 c0 -5 -4 -10 -10 -10 -5 0 -10 5 -10 10 0 6 5 10
10 10 6 0 10 -4 10 -10z m58 -1041 c-19 -12 -25 -11 -25 5 0 8 8 11 20 8 14
-4 16 -7 5 -13z m342 -761 c0 -40 -53 -323 -63 -335 -5 -7 -21 -13 -35 -13
-25 0 -25 0 -18 65 4 36 9 73 12 82 6 20 -32 -20 -52 -53 -9 -15 -11 -6 -9 46
2 70 8 86 70 173 32 45 45 57 68 57 21 0 27 -5 27 -22z m-248 -302 c2 -19 0
-32 -4 -30 -8 5 -12 64 -4 64 2 0 6 -15 8 -34z"/>
<path d="M1823 3315 c0 -22 2 -30 4 -17 2 12 2 30 0 40 -3 9 -5 -1 -4 -23z"/>
<path d="M2580 2561 c0 -6 4 -12 8 -15 5 -3 9 1 9 9 0 8 -4 15 -9 15 -4 0 -8
-4 -8 -9z"/>
<path d="M2605 479 c-4 -6 -5 -12 -2 -15 2 -3 7 2 10 11 7 17 1 20 -8 4z"/>
<path d="M1767 2640 c3 -11 7 -20 9 -20 2 0 4 9 4 20 0 11 -4 20 -9 20 -5 0
-7 -9 -4 -20z"/>
</g>
</svg>
